<svg xmlns="http://www.w3.org/2000/svg" width="79.615" height="78.356" viewBox="0 0 79.615 78.356">
  <path id="user_3_" data-name="user (3)" d="M44.584,19.623A16.423,16.423,0,1,1,28.161,3.2,16.42,16.42,0,0,1,44.584,19.623Zm1.5,33.512A27.863,27.863,0,0,0,28.2,46.729h-.056A27.722,27.722,0,0,0,8.2,55.079,29.744,29.744,0,0,0,0,74.872l45.584-.093A19.686,19.686,0,0,1,46.084,53.135ZM62.4,47.118a17.07,17.07,0,1,0,12.22,5A17.222,17.222,0,0,0,62.4,47.118Zm8.221,14.016-10.35,8.424a1.294,1.294,0,0,1-.815.3,1.247,1.247,0,0,1-.981-.463l-4.462-5.2A1.3,1.3,0,0,1,55.99,62.5l3.629,4.24,9.369-7.628A1.291,1.291,0,0,1,70.8,59.3,1.315,1.315,0,0,1,70.617,61.134Z" transform="translate(0 -3.2)" fill="#10a9f4"/>
</svg>
